<svg xmlns="http://www.w3.org/2000/svg" xmlns:xlink="http://www.w3.org/1999/xlink" viewBox="0 0 1000 1000"><defs><style>.cls-1{fill:url(#linear-gradient);}.cls-2{fill:#444df2;}.cls-3{fill:none;}.cls-4{fill:#f9f9f9;}.cls-5{fill:url(#linear-gradient-2);}.cls-6{fill:url(#linear-gradient-3);}.cls-7{fill:#f7f7f7;}</style><linearGradient id="linear-gradient" x1="355.72" y1="456.14" x2="937" y2="456.14" gradientUnits="userSpaceOnUse"><stop offset="0" stop-color="#0089ff"/><stop offset="0.28" stop-color="#029dda"/><stop offset="0.77" stop-color="#04bd9f"/><stop offset="1" stop-color="#05c988"/></linearGradient><linearGradient id="linear-gradient-2" x1="597.15" y1="741.07" x2="623.19" y2="695.96" xlink:href="#linear-gradient"/><linearGradient id="linear-gradient-3" x1="744.96" y1="620.49" x2="818.48" y2="620.49" xlink:href="#linear-gradient"/></defs><g id="Layer_4" data-name="Layer 4"><path class="cls-1" d="M936.49,414.13A224.18,224.18,0,0,1,860,568.91l-83.59,73.15c-6.31,1.24-12.73-.63-16.41-5.09-5.19-6.29-4.38-17.14,3.22-24.09q38.29-33.5,76.6-67A195,195,0,0,0,735.11,205.64c-3.57-.43-7.15-.75-10.75-1A193.72,193.72,0,0,0,583,252.47L572.11,262l-23.17,20.27-96.13,84.13c-80.89,70.79-89.11,194.2-18.3,275.09A194.42,194.42,0,0,0,494,687.61c11.68,5.84,38.21,18.76,74.2,20a177,177,0,0,0,36.21-2.6l5.9,31.84a226.82,226.82,0,0,1-44.13,1.32q-6.24-.42-12.43-1.16a224,224,0,0,1-142.34-75.36c-81.91-93.59-72.4-236.4,21.18-318.29l97.23-85.1,23-20.16,9.94-8.72A225.59,225.59,0,0,1,936.49,414.13Z"/><path class="cls-2" d="M694.92,457.79,599.4,304.68a15.31,15.31,0,0,0-22.6-3.81h0a15.3,15.3,0,0,0-3.38,20L668.92,474A245.31,245.31,0,0,1,700,660.41c-.7,3-1.45,6-2.25,9a247.93,247.93,0,0,1-17.82,46.64,245.22,245.22,0,0,1-89.79,98.12C474.59,886.22,322,850.86,249.94,735.36L137.15,554.52C65.09,439,100.44,286.4,216,214.35A245.78,245.78,0,0,1,376.09,178.8a248.42,248.42,0,0,1,107.06,39.33c.49.33,1,.69,1.41,1.07,9.7,8,22.49,5.72,26.88-1.14,2.69-4.19,2.46-10.42-.52-16a14.55,14.55,0,0,0-5.11-5.37c-97.12-61.33-216.95-63.89-306.07-8.3-129.83,81-169.58,252.51-88.6,382.36L224,751.56c46.19,74.05,121.81,118.8,202.37,128.56a277.35,277.35,0,0,0,298.06-192.7q3.07-9.9,5.43-20.09a282.37,282.37,0,0,0,5.24-29.81A275.37,275.37,0,0,0,694.92,457.79Z"/><polyline class="cls-3" points="541.12 329.65 566.24 309.38 590.25 290.02 600.97 281.36"/><polyline class="cls-3" points="654.75 741.48 658.23 725.26 666.07 688.7 668.94 675.32"/><circle class="cls-2" cx="498.36" cy="210.01" r="36.76"/><circle class="cls-4" cx="498.36" cy="210.01" r="16.85"/><circle class="cls-2" cx="585.67" cy="311.1" r="21.44"/><circle class="cls-5" cx="610.17" cy="718.52" r="26.04"/><circle class="cls-6" cx="781.72" cy="620.49" r="36.76"/><circle class="cls-7" cx="781.72" cy="620.49" r="19.91"/></g></svg>